<?xml version="1.0" encoding="utf-8"?>
<!-- Generator: Adobe Illustrator 16.2.1, SVG Export Plug-In . SVG Version: 6.00 Build 0)  -->
<!DOCTYPE svg PUBLIC "-//W3C//DTD SVG 1.0//EN" "http://www.w3.org/TR/2001/REC-SVG-20010904/DTD/svg10.dtd">
<svg version="1.0" id="Layer_1" xmlns="http://www.w3.org/2000/svg" xmlns:xlink="http://www.w3.org/1999/xlink" x="0px" y="0px"
	 width="220.333px" height="79.333px" viewBox="0 0 220.333 79.333" enable-background="new 0 0 220.333 79.333"
	 xml:space="preserve">
<g>
	<rect x="29.254" y="73.968" fill="#C7C8CA" width="3.931" height="3.929"/>
	<rect x="29.254" y="68.787" fill="#C7C8CA" width="3.931" height="3.931"/>
	<rect x="29.254" y="63.606" fill="#C7C8CA" width="3.931" height="3.93"/>
	<rect x="29.254" y="58.425" fill="#C7C8CA" width="3.931" height="3.932"/>
	<rect x="29.254" y="53.246" fill="#C7C8CA" width="3.931" height="3.93"/>
	<rect x="29.254" y="48.064" fill="#C7C8CA" width="3.931" height="3.931"/>
	<rect x="29.254" y="42.883" fill="#C7C8CA" width="3.931" height="3.93"/>
	<rect x="29.254" y="37.702" fill="#C7C8CA" width="3.931" height="3.933"/>
	<rect x="29.254" y="32.523" fill="#C7C8CA" width="3.931" height="3.929"/>
	<rect x="29.254" y="27.339" fill="#C7C8CA" width="3.931" height="3.933"/>
	<rect x="29.254" y="22.16" fill="#C7C8CA" width="3.931" height="3.93"/>
	<rect x="29.254" y="16.979" fill="#C7C8CA" width="3.931" height="3.932"/>
	<rect x="29.254" y="11.798" fill="#C7C8CA" width="3.931" height="3.93"/>
	<rect x="29.254" y="6.618" fill="#C7C8CA" width="3.931" height="3.93"/>
	<rect x="29.254" y="1.436" fill="#C7C8CA" width="3.931" height="3.932"/>
	<rect x="34.704" y="73.968" fill="#C7C8CA" width="3.93" height="3.929"/>
	<rect x="34.704" y="68.787" fill="#C7C8CA" width="3.93" height="3.931"/>
	<rect x="34.704" y="63.606" fill="#C7C8CA" width="3.93" height="3.93"/>
	<rect x="34.704" y="58.425" fill="#C7C8CA" width="3.93" height="3.932"/>
	<rect x="34.704" y="53.246" fill="#C7C8CA" width="3.93" height="3.93"/>
	<rect x="34.704" y="48.064" fill="#C7C8CA" width="3.93" height="3.931"/>
	<rect x="34.704" y="42.883" fill="#C7C8CA" width="3.93" height="3.93"/>
	<rect x="34.704" y="37.702" fill="#C7C8CA" width="3.93" height="3.933"/>
	<rect x="34.704" y="32.523" fill="#C7C8CA" width="3.93" height="3.929"/>
	<rect x="34.704" y="27.339" fill="#C7C8CA" width="3.93" height="3.933"/>
	<rect x="34.704" y="22.16" fill="#C7C8CA" width="3.93" height="3.93"/>
	<rect x="34.704" y="16.979" fill="#C7C8CA" width="3.93" height="3.932"/>
	<rect x="34.704" y="11.798" fill="#C7C8CA" width="3.93" height="3.93"/>
	<rect x="34.704" y="6.618" fill="#C7C8CA" width="3.93" height="3.93"/>
	<rect x="34.704" y="1.436" fill="#C7C8CA" width="3.93" height="3.932"/>
	<rect x="40.153" y="73.968" fill="#C7C8CA" width="3.931" height="3.929"/>
	<rect x="40.153" y="68.787" fill="#C7C8CA" width="3.931" height="3.931"/>
	<rect x="40.153" y="63.606" fill="#C7C8CA" width="3.931" height="3.93"/>
	<rect x="40.153" y="58.425" fill="#C7C8CA" width="3.931" height="3.932"/>
	<rect x="40.153" y="53.246" fill="#C7C8CA" width="3.931" height="3.93"/>
	<rect x="40.153" y="48.064" fill="#C7C8CA" width="3.931" height="3.931"/>
	<rect x="40.153" y="42.883" fill="#C7C8CA" width="3.931" height="3.93"/>
	<rect x="40.153" y="37.702" fill="#C7C8CA" width="3.931" height="3.933"/>
	<rect x="40.153" y="32.523" fill="#C7C8CA" width="3.931" height="3.929"/>
	<rect x="40.153" y="27.339" fill="#C7C8CA" width="3.931" height="3.933"/>
	<rect x="40.153" y="22.16" fill="#C7C8CA" width="3.931" height="3.93"/>
	<rect x="40.153" y="16.979" fill="#C7C8CA" width="3.931" height="3.932"/>
	<rect x="40.153" y="11.798" fill="#C7C8CA" width="3.931" height="3.93"/>
	<rect x="40.153" y="6.618" fill="#C7C8CA" width="3.931" height="3.93"/>
	<rect x="40.153" y="1.436" fill="#C7C8CA" width="3.931" height="3.932"/>
	<rect x="45.602" y="73.968" fill="#C7C8CA" width="3.93" height="3.929"/>
	<rect x="45.602" y="68.787" fill="#C7C8CA" width="3.93" height="3.931"/>
	<rect x="45.602" y="63.606" fill="#C7C8CA" width="3.93" height="3.93"/>
	<rect x="45.602" y="58.425" fill="#C7C8CA" width="3.93" height="3.932"/>
	<rect x="45.602" y="53.246" fill="#C7C8CA" width="3.93" height="3.93"/>
	<rect x="45.602" y="48.064" fill="#C7C8CA" width="3.93" height="3.931"/>
	<rect x="45.602" y="42.883" fill="#C7C8CA" width="3.93" height="3.93"/>
	<rect x="45.602" y="37.702" fill="#C7C8CA" width="3.93" height="3.933"/>
	<rect x="45.602" y="32.523" fill="#C7C8CA" width="3.93" height="3.929"/>
	<rect x="45.602" y="27.339" fill="#C7C8CA" width="3.93" height="3.933"/>
	<rect x="45.602" y="22.16" fill="#C7C8CA" width="3.93" height="3.93"/>
	<rect x="45.602" y="16.979" fill="#C7C8CA" width="3.93" height="3.932"/>
	<rect x="45.602" y="11.798" fill="#C7C8CA" width="3.93" height="3.93"/>
	<rect x="45.602" y="6.618" fill="#C7C8CA" width="3.93" height="3.93"/>
	<rect x="45.602" y="1.436" fill="#C7C8CA" width="3.93" height="3.932"/>
	<rect x="51.05" y="73.968" fill="#C7C8CA" width="3.931" height="3.929"/>
	<rect x="51.05" y="68.787" fill="#C7C8CA" width="3.931" height="3.931"/>
	<rect x="51.05" y="63.606" fill="#C7C8CA" width="3.931" height="3.93"/>
	<rect x="51.05" y="58.425" fill="#C7C8CA" width="3.931" height="3.932"/>
	<rect x="51.05" y="53.246" fill="#C7C8CA" width="3.931" height="3.93"/>
	<rect x="51.05" y="48.064" fill="#C7C8CA" width="3.931" height="3.931"/>
	<rect x="51.05" y="42.883" fill="#C7C8CA" width="3.931" height="3.93"/>
	<rect x="51.05" y="37.702" fill="#C7C8CA" width="3.931" height="3.933"/>
	<rect x="51.05" y="32.523" fill="#C7C8CA" width="3.931" height="3.929"/>
	<rect x="51.05" y="27.339" fill="#C7C8CA" width="3.931" height="3.933"/>
	<rect x="51.05" y="22.16" fill="#C7C8CA" width="3.931" height="3.93"/>
	<rect x="51.05" y="16.979" fill="#C7C8CA" width="3.931" height="3.932"/>
	<rect x="51.05" y="11.798" fill="#C7C8CA" width="3.931" height="3.93"/>
	<rect x="51.05" y="6.618" fill="#C7C8CA" width="3.931" height="3.93"/>
	<rect x="51.05" y="1.436" fill="#C7C8CA" width="3.931" height="3.932"/>
	<rect x="56.426" y="73.968" fill="#C7C8CA" width="3.93" height="3.929"/>
	<rect x="56.426" y="68.787" fill="#C7C8CA" width="3.93" height="3.931"/>
	<rect x="56.426" y="63.606" fill="#C7C8CA" width="3.93" height="3.93"/>
	<rect x="56.426" y="58.425" fill="#C7C8CA" width="3.93" height="3.932"/>
	<rect x="56.426" y="53.246" fill="#C7C8CA" width="3.93" height="3.93"/>
	<rect x="56.426" y="48.064" fill="#C7C8CA" width="3.93" height="3.931"/>
	<rect x="56.426" y="42.883" fill="#C7C8CA" width="3.93" height="3.93"/>
	<rect x="56.426" y="37.702" fill="#C7C8CA" width="3.93" height="3.933"/>
	<rect x="56.426" y="32.523" fill="#C7C8CA" width="3.93" height="3.929"/>
	<rect x="56.426" y="27.339" fill="#C7C8CA" width="3.93" height="3.933"/>
	<rect x="56.426" y="22.16" fill="#C7C8CA" width="3.93" height="3.93"/>
	<rect x="56.426" y="16.979" fill="#C7C8CA" width="3.93" height="3.932"/>
	<rect x="56.426" y="11.798" fill="#C7C8CA" width="3.93" height="3.93"/>
	<rect x="56.426" y="6.618" fill="#C7C8CA" width="3.93" height="3.93"/>
	<rect x="56.426" y="1.436" fill="#C7C8CA" width="3.93" height="3.932"/>
	<rect x="61.875" y="73.968" fill="#C7C8CA" width="3.93" height="3.929"/>
	<rect x="61.875" y="68.787" fill="#C7C8CA" width="3.93" height="3.931"/>
	<rect x="61.875" y="63.606" fill="#C7C8CA" width="3.93" height="3.93"/>
	<rect x="61.875" y="58.425" fill="#C7C8CA" width="3.93" height="3.932"/>
	<rect x="61.875" y="53.246" fill="#C7C8CA" width="3.93" height="3.93"/>
	<rect x="61.875" y="48.064" fill="#C7C8CA" width="3.93" height="3.931"/>
	<rect x="61.875" y="42.883" fill="#C7C8CA" width="3.93" height="3.93"/>
	<rect x="61.875" y="37.702" fill="#C7C8CA" width="3.93" height="3.933"/>
	<rect x="61.875" y="32.523" fill="#C7C8CA" width="3.93" height="3.929"/>
	<rect x="61.875" y="27.339" fill="#C7C8CA" width="3.93" height="3.933"/>
	<rect x="61.875" y="22.16" fill="#C7C8CA" width="3.93" height="3.93"/>
	<rect x="61.875" y="16.979" fill="#C7C8CA" width="3.93" height="3.932"/>
	<rect x="61.875" y="11.798" fill="#C7C8CA" width="3.93" height="3.93"/>
	<rect x="61.875" y="6.618" fill="#C7C8CA" width="3.93" height="3.93"/>
	<rect x="61.875" y="1.436" fill="#C7C8CA" width="3.93" height="3.932"/>
	<rect x="67.323" y="73.968" fill="#C7C8CA" width="3.932" height="3.929"/>
	<rect x="67.323" y="68.787" fill="#C7C8CA" width="3.932" height="3.931"/>
	<rect x="67.323" y="63.606" fill="#C7C8CA" width="3.932" height="3.93"/>
	<rect x="67.323" y="58.425" fill="#C7C8CA" width="3.932" height="3.932"/>
	<rect x="67.323" y="53.246" fill="#C7C8CA" width="3.932" height="3.93"/>
	<rect x="67.323" y="48.064" fill="#C7C8CA" width="3.932" height="3.931"/>
	<rect x="67.323" y="42.883" fill="#C7C8CA" width="3.932" height="3.93"/>
	<rect x="67.323" y="37.702" fill="#C7C8CA" width="3.932" height="3.933"/>
	<rect x="67.323" y="32.523" fill="#C7C8CA" width="3.932" height="3.929"/>
	<rect x="67.323" y="27.339" fill="#C7C8CA" width="3.932" height="3.933"/>
	<rect x="67.323" y="22.16" fill="#C7C8CA" width="3.932" height="3.93"/>
	<rect x="67.323" y="16.979" fill="#C7C8CA" width="3.932" height="3.932"/>
	<rect x="67.323" y="11.798" fill="#C7C8CA" width="3.932" height="3.93"/>
	<rect x="67.323" y="6.618" fill="#C7C8CA" width="3.932" height="3.93"/>
	<rect x="67.323" y="1.436" fill="#C7C8CA" width="3.932" height="3.932"/>
	<rect x="72.772" y="73.968" fill="#C7C8CA" width="3.932" height="3.929"/>
	<rect x="72.772" y="68.787" fill="#C7C8CA" width="3.932" height="3.931"/>
	<rect x="72.772" y="63.606" fill="#C7C8CA" width="3.932" height="3.93"/>
	<rect x="72.772" y="58.425" fill="#C7C8CA" width="3.932" height="3.932"/>
	<rect x="72.772" y="53.246" fill="#C7C8CA" width="3.932" height="3.93"/>
	<rect x="72.772" y="48.064" fill="#C7C8CA" width="3.932" height="3.931"/>
	<rect x="72.772" y="42.883" fill="#C7C8CA" width="3.932" height="3.93"/>
	<rect x="72.772" y="37.702" fill="#C7C8CA" width="3.932" height="3.933"/>
	<rect x="72.772" y="32.523" fill="#C7C8CA" width="3.932" height="3.929"/>
	<rect x="72.772" y="27.339" fill="#C7C8CA" width="3.932" height="3.933"/>
	<rect x="72.772" y="22.16" fill="#C7C8CA" width="3.932" height="3.93"/>
	<rect x="72.772" y="16.979" fill="#C7C8CA" width="3.932" height="3.932"/>
	<rect x="72.772" y="11.798" fill="#C7C8CA" width="3.932" height="3.93"/>
	<rect x="72.772" y="6.618" fill="#C7C8CA" width="3.932" height="3.93"/>
	<rect x="72.772" y="1.436" fill="#C7C8CA" width="3.932" height="3.932"/>
	<rect x="78.221" y="73.968" fill="#C7C8CA" width="3.93" height="3.929"/>
	<rect x="78.221" y="68.787" fill="#C7C8CA" width="3.93" height="3.931"/>
	<rect x="78.221" y="63.606" fill="#C7C8CA" width="3.93" height="3.93"/>
	<rect x="78.221" y="58.425" fill="#C7C8CA" width="3.93" height="3.932"/>
	<rect x="78.221" y="53.246" fill="#C7C8CA" width="3.93" height="3.93"/>
	<rect x="78.221" y="48.064" fill="#C7C8CA" width="3.93" height="3.931"/>
	<rect x="78.221" y="42.883" fill="#C7C8CA" width="3.93" height="3.93"/>
	<rect x="78.221" y="37.702" fill="#C7C8CA" width="3.93" height="3.933"/>
	<rect x="78.221" y="32.523" fill="#C7C8CA" width="3.93" height="3.929"/>
	<rect x="78.221" y="27.339" fill="#C7C8CA" width="3.93" height="3.933"/>
	<rect x="78.221" y="22.16" fill="#C7C8CA" width="3.93" height="3.93"/>
	<rect x="78.221" y="16.979" fill="#C7C8CA" width="3.93" height="3.932"/>
	<rect x="78.221" y="11.798" fill="#C7C8CA" width="3.93" height="3.93"/>
	<rect x="78.221" y="6.618" fill="#C7C8CA" width="3.93" height="3.93"/>
	<rect x="78.221" y="1.436" fill="#C7C8CA" width="3.93" height="3.932"/>
	<rect x="2.161" y="73.968" fill="#C7C8CA" width="3.93" height="3.929"/>
	<rect x="2.161" y="68.787" fill="#C7C8CA" width="3.93" height="3.931"/>
	<rect x="2.161" y="63.606" fill="#C7C8CA" width="3.93" height="3.93"/>
	<rect x="2.161" y="58.425" fill="#C7C8CA" width="3.93" height="3.932"/>
	<rect x="2.161" y="53.246" fill="#C7C8CA" width="3.93" height="3.93"/>
	<rect x="2.161" y="48.064" fill="#C7C8CA" width="3.93" height="3.931"/>
	<rect x="2.161" y="42.883" fill="#C7C8CA" width="3.93" height="3.93"/>
	<rect x="2.161" y="37.702" fill="#C7C8CA" width="3.93" height="3.933"/>
	<rect x="2.161" y="32.523" fill="#C7C8CA" width="3.93" height="3.929"/>
	<rect x="2.161" y="27.339" fill="#C7C8CA" width="3.93" height="3.933"/>
	<rect x="2.161" y="22.16" fill="#C7C8CA" width="3.93" height="3.93"/>
	<rect x="2.161" y="16.979" fill="#C7C8CA" width="3.93" height="3.932"/>
	<rect x="2.161" y="11.798" fill="#C7C8CA" width="3.93" height="3.93"/>
	<rect x="2.161" y="6.618" fill="#C7C8CA" width="3.93" height="3.93"/>
	<rect x="2.161" y="1.436" fill="#EF4123" width="3.93" height="3.932"/>
	<rect x="7.61" y="73.968" fill="#C7C8CA" width="3.93" height="3.929"/>
	<rect x="7.61" y="68.787" fill="#C7C8CA" width="3.93" height="3.931"/>
	<rect x="7.61" y="63.606" fill="#C7C8CA" width="3.93" height="3.93"/>
	<rect x="7.61" y="58.425" fill="#C7C8CA" width="3.93" height="3.932"/>
	<rect x="7.61" y="53.246" fill="#C7C8CA" width="3.93" height="3.93"/>
	<rect x="7.61" y="48.064" fill="#C7C8CA" width="3.93" height="3.931"/>
	<rect x="7.61" y="42.883" fill="#C7C8CA" width="3.93" height="3.93"/>
	<rect x="7.61" y="37.702" fill="#C7C8CA" width="3.93" height="3.933"/>
	<rect x="7.61" y="32.523" fill="#C7C8CA" width="3.93" height="3.929"/>
	<rect x="7.61" y="27.339" fill="#C7C8CA" width="3.93" height="3.933"/>
	<rect x="7.61" y="22.16" fill="#C7C8CA" width="3.93" height="3.93"/>
	<rect x="7.61" y="16.979" fill="#C7C8CA" width="3.93" height="3.932"/>
	<rect x="7.61" y="11.798" fill="#C7C8CA" width="3.93" height="3.93"/>
	<rect x="7.61" y="6.618" fill="#C7C8CA" width="3.93" height="3.93"/>
	<rect x="7.61" y="1.436" fill="#EF4123" width="3.93" height="3.932"/>
	<rect x="13.057" y="73.968" fill="#C7C8CA" width="3.932" height="3.929"/>
	<rect x="13.057" y="68.787" fill="#C7C8CA" width="3.932" height="3.931"/>
	<rect x="13.057" y="63.606" fill="#C7C8CA" width="3.932" height="3.93"/>
	<rect x="13.057" y="58.425" fill="#C7C8CA" width="3.932" height="3.932"/>
	<rect x="13.057" y="53.246" fill="#C7C8CA" width="3.932" height="3.93"/>
	<rect x="13.057" y="48.064" fill="#C7C8CA" width="3.932" height="3.931"/>
	<rect x="13.057" y="42.883" fill="#C7C8CA" width="3.932" height="3.93"/>
	<rect x="13.057" y="37.702" fill="#C7C8CA" width="3.932" height="3.933"/>
	<rect x="13.057" y="32.523" fill="#C7C8CA" width="3.932" height="3.929"/>
	<rect x="13.057" y="27.339" fill="#C7C8CA" width="3.932" height="3.933"/>
	<rect x="13.057" y="22.16" fill="#C7C8CA" width="3.932" height="3.93"/>
	<rect x="13.057" y="16.979" fill="#C7C8CA" width="3.932" height="3.932"/>
	<rect x="13.057" y="11.798" fill="#C7C8CA" width="3.932" height="3.93"/>
	<rect x="13.057" y="6.618" fill="#C7C8CA" width="3.932" height="3.93"/>
	<rect x="13.057" y="1.436" fill="#C7C8CA" width="3.932" height="3.932"/>
	<rect x="18.506" y="73.968" fill="#C7C8CA" width="3.932" height="3.929"/>
	<rect x="18.506" y="68.787" fill="#C7C8CA" width="3.932" height="3.931"/>
	<rect x="18.506" y="63.606" fill="#C7C8CA" width="3.932" height="3.93"/>
	<rect x="18.506" y="58.425" fill="#C7C8CA" width="3.932" height="3.932"/>
	<rect x="18.506" y="53.246" fill="#C7C8CA" width="3.932" height="3.93"/>
	<rect x="18.506" y="48.064" fill="#C7C8CA" width="3.932" height="3.931"/>
	<rect x="18.506" y="42.883" fill="#C7C8CA" width="3.932" height="3.93"/>
	<rect x="18.506" y="37.702" fill="#C7C8CA" width="3.932" height="3.933"/>
	<rect x="18.506" y="32.523" fill="#C7C8CA" width="3.932" height="3.929"/>
	<rect x="18.506" y="27.339" fill="#C7C8CA" width="3.932" height="3.933"/>
	<rect x="18.506" y="22.16" fill="#C7C8CA" width="3.932" height="3.93"/>
	<rect x="18.506" y="16.979" fill="#C7C8CA" width="3.932" height="3.932"/>
	<rect x="18.506" y="11.798" fill="#C7C8CA" width="3.932" height="3.93"/>
	<rect x="18.506" y="6.618" fill="#C7C8CA" width="3.932" height="3.93"/>
	<rect x="18.506" y="1.436" fill="#C7C8CA" width="3.932" height="3.932"/>
	<rect x="23.956" y="73.968" fill="#C7C8CA" width="3.93" height="3.929"/>
	<rect x="23.956" y="68.787" fill="#C7C8CA" width="3.93" height="3.931"/>
	<rect x="23.956" y="63.606" fill="#C7C8CA" width="3.93" height="3.93"/>
	<rect x="23.956" y="58.425" fill="#C7C8CA" width="3.93" height="3.932"/>
	<rect x="23.956" y="53.246" fill="#C7C8CA" width="3.93" height="3.93"/>
	<rect x="23.956" y="48.064" fill="#C7C8CA" width="3.93" height="3.931"/>
	<rect x="23.956" y="42.883" fill="#C7C8CA" width="3.93" height="3.93"/>
	<rect x="23.956" y="37.702" fill="#C7C8CA" width="3.93" height="3.933"/>
	<rect x="23.956" y="32.523" fill="#C7C8CA" width="3.93" height="3.929"/>
	<rect x="23.956" y="27.339" fill="#C7C8CA" width="3.93" height="3.933"/>
	<rect x="23.956" y="22.16" fill="#C7C8CA" width="3.93" height="3.93"/>
	<rect x="23.956" y="16.979" fill="#C7C8CA" width="3.93" height="3.932"/>
	<rect x="23.956" y="11.798" fill="#C7C8CA" width="3.93" height="3.93"/>
	<rect x="23.956" y="6.618" fill="#C7C8CA" width="3.93" height="3.93"/>
	<rect x="23.956" y="1.436" fill="#C7C8CA" width="3.93" height="3.932"/>
	<rect x="83.597" y="73.968" fill="#C7C8CA" width="3.931" height="3.929"/>
	<rect x="83.597" y="68.787" fill="#C7C8CA" width="3.931" height="3.931"/>
	<rect x="83.597" y="63.606" fill="#C7C8CA" width="3.931" height="3.93"/>
	<rect x="83.597" y="58.425" fill="#C7C8CA" width="3.931" height="3.932"/>
	<rect x="83.597" y="53.246" fill="#C7C8CA" width="3.931" height="3.93"/>
	<rect x="83.597" y="48.064" fill="#C7C8CA" width="3.931" height="3.931"/>
	<rect x="83.597" y="42.883" fill="#C7C8CA" width="3.931" height="3.93"/>
	<rect x="83.597" y="37.702" fill="#C7C8CA" width="3.931" height="3.933"/>
	<rect x="83.597" y="32.523" fill="#C7C8CA" width="3.931" height="3.929"/>
	<rect x="83.597" y="27.339" fill="#C7C8CA" width="3.931" height="3.933"/>
	<rect x="83.597" y="22.16" fill="#C7C8CA" width="3.931" height="3.93"/>
	<rect x="83.597" y="16.979" fill="#C7C8CA" width="3.931" height="3.932"/>
	<rect x="83.597" y="11.798" fill="#C7C8CA" width="3.931" height="3.93"/>
	<rect x="83.597" y="6.618" fill="#C7C8CA" width="3.931" height="3.93"/>
	<rect x="83.597" y="1.436" fill="#C7C8CA" width="3.931" height="3.932"/>
	<rect x="89.045" y="73.968" fill="#C7C8CA" width="3.932" height="3.929"/>
	<rect x="89.045" y="68.787" fill="#C7C8CA" width="3.932" height="3.931"/>
	<rect x="89.045" y="63.606" fill="#C7C8CA" width="3.932" height="3.93"/>
	<rect x="89.045" y="58.425" fill="#C7C8CA" width="3.932" height="3.932"/>
	<rect x="89.045" y="53.246" fill="#C7C8CA" width="3.932" height="3.93"/>
	<rect x="89.045" y="48.064" fill="#C7C8CA" width="3.932" height="3.931"/>
	<rect x="89.045" y="42.883" fill="#C7C8CA" width="3.932" height="3.93"/>
	<rect x="89.045" y="37.702" fill="#C7C8CA" width="3.932" height="3.933"/>
	<rect x="89.045" y="32.523" fill="#C7C8CA" width="3.932" height="3.929"/>
	<rect x="89.045" y="27.339" fill="#C7C8CA" width="3.932" height="3.933"/>
	<rect x="89.045" y="22.16" fill="#C7C8CA" width="3.932" height="3.93"/>
	<rect x="89.045" y="16.979" fill="#C7C8CA" width="3.932" height="3.932"/>
	<rect x="89.045" y="11.798" fill="#C7C8CA" width="3.932" height="3.93"/>
	<rect x="89.045" y="6.618" fill="#C7C8CA" width="3.932" height="3.93"/>
	<rect x="89.045" y="1.436" fill="#C7C8CA" width="3.932" height="3.932"/>
	<rect x="94.495" y="73.968" fill="#C7C8CA" width="3.93" height="3.929"/>
	<rect x="94.495" y="68.787" fill="#C7C8CA" width="3.93" height="3.931"/>
	<rect x="94.495" y="63.606" fill="#C7C8CA" width="3.93" height="3.93"/>
	<rect x="94.495" y="58.425" fill="#C7C8CA" width="3.93" height="3.932"/>
	<rect x="94.495" y="53.246" fill="#C7C8CA" width="3.93" height="3.93"/>
	<rect x="94.495" y="48.064" fill="#C7C8CA" width="3.93" height="3.931"/>
	<rect x="94.495" y="42.883" fill="#C7C8CA" width="3.93" height="3.93"/>
	<rect x="94.495" y="37.702" fill="#C7C8CA" width="3.93" height="3.933"/>
	<rect x="94.495" y="32.523" fill="#C7C8CA" width="3.93" height="3.929"/>
	<rect x="94.495" y="27.339" fill="#C7C8CA" width="3.93" height="3.933"/>
	<rect x="94.495" y="22.16" fill="#C7C8CA" width="3.93" height="3.93"/>
	<rect x="94.495" y="16.979" fill="#C7C8CA" width="3.93" height="3.932"/>
	<rect x="94.495" y="11.798" fill="#C7C8CA" width="3.93" height="3.93"/>
	<rect x="94.495" y="6.618" fill="#C7C8CA" width="3.93" height="3.93"/>
	<rect x="94.495" y="1.436" fill="#C7C8CA" width="3.93" height="3.932"/>
	<rect x="99.943" y="73.968" fill="#C7C8CA" width="3.931" height="3.929"/>
	<rect x="99.943" y="68.787" fill="#C7C8CA" width="3.931" height="3.931"/>
	<rect x="99.943" y="63.606" fill="#C7C8CA" width="3.931" height="3.93"/>
	<rect x="99.943" y="58.425" fill="#C7C8CA" width="3.931" height="3.932"/>
	<rect x="99.943" y="53.246" fill="#C7C8CA" width="3.931" height="3.93"/>
	<rect x="99.943" y="48.064" fill="#C7C8CA" width="3.931" height="3.931"/>
	<rect x="99.943" y="42.883" fill="#C7C8CA" width="3.931" height="3.93"/>
	<rect x="99.943" y="37.702" fill="#C7C8CA" width="3.931" height="3.933"/>
	<rect x="99.943" y="32.523" fill="#C7C8CA" width="3.931" height="3.929"/>
	<rect x="99.943" y="27.339" fill="#C7C8CA" width="3.931" height="3.933"/>
	<rect x="99.943" y="22.16" fill="#C7C8CA" width="3.931" height="3.93"/>
	<rect x="99.943" y="16.979" fill="#C7C8CA" width="3.931" height="3.932"/>
	<rect x="99.943" y="11.798" fill="#C7C8CA" width="3.931" height="3.93"/>
	<rect x="99.943" y="6.618" fill="#C7C8CA" width="3.931" height="3.93"/>
	<rect x="99.943" y="1.436" fill="#C7C8CA" width="3.931" height="3.932"/>
	<rect x="105.392" y="73.968" fill="#C7C8CA" width="3.931" height="3.929"/>
	<rect x="105.392" y="68.787" fill="#C7C8CA" width="3.931" height="3.931"/>
	<rect x="105.392" y="63.606" fill="#C7C8CA" width="3.931" height="3.93"/>
	<rect x="105.392" y="58.425" fill="#C7C8CA" width="3.931" height="3.932"/>
	<rect x="105.392" y="53.246" fill="#C7C8CA" width="3.931" height="3.93"/>
	<rect x="105.392" y="48.064" fill="#C7C8CA" width="3.931" height="3.931"/>
	<rect x="105.392" y="42.883" fill="#C7C8CA" width="3.931" height="3.93"/>
	<rect x="105.392" y="37.702" fill="#C7C8CA" width="3.931" height="3.933"/>
	<rect x="105.392" y="32.523" fill="#C7C8CA" width="3.931" height="3.929"/>
	<rect x="105.392" y="27.339" fill="#C7C8CA" width="3.931" height="3.933"/>
	<rect x="105.392" y="22.16" fill="#C7C8CA" width="3.931" height="3.93"/>
	<rect x="105.392" y="16.979" fill="#C7C8CA" width="3.931" height="3.932"/>
	<rect x="105.392" y="11.798" fill="#C7C8CA" width="3.931" height="3.93"/>
	<rect x="105.392" y="6.618" fill="#C7C8CA" width="3.931" height="3.93"/>
	<rect x="105.392" y="1.436" fill="#C7C8CA" width="3.931" height="3.932"/>
	<rect x="110.768" y="73.968" fill="#C7C8CA" width="3.93" height="3.929"/>
	<rect x="110.768" y="68.787" fill="#C7C8CA" width="3.93" height="3.931"/>
	<rect x="110.768" y="63.606" fill="#C7C8CA" width="3.93" height="3.93"/>
	<rect x="110.768" y="58.425" fill="#C7C8CA" width="3.93" height="3.932"/>
	<rect x="110.768" y="53.246" fill="#C7C8CA" width="3.93" height="3.93"/>
	<rect x="110.768" y="48.064" fill="#C7C8CA" width="3.93" height="3.931"/>
	<rect x="110.768" y="42.883" fill="#C7C8CA" width="3.93" height="3.93"/>
	<rect x="110.768" y="37.702" fill="#C7C8CA" width="3.93" height="3.933"/>
	<rect x="110.768" y="32.523" fill="#C7C8CA" width="3.93" height="3.929"/>
	<rect x="110.768" y="27.339" fill="#C7C8CA" width="3.93" height="3.933"/>
	<rect x="110.768" y="22.16" fill="#C7C8CA" width="3.93" height="3.93"/>
	<rect x="110.768" y="16.979" fill="#C7C8CA" width="3.93" height="3.932"/>
	<rect x="110.768" y="11.798" fill="#C7C8CA" width="3.93" height="3.93"/>
	<rect x="110.768" y="6.618" fill="#C7C8CA" width="3.93" height="3.93"/>
	<rect x="110.768" y="1.436" fill="#C7C8CA" width="3.93" height="3.932"/>
	<rect x="116.216" y="73.968" fill="#C7C8CA" width="3.931" height="3.929"/>
	<rect x="116.216" y="68.787" fill="#C7C8CA" width="3.931" height="3.931"/>
	<rect x="116.216" y="63.606" fill="#C7C8CA" width="3.931" height="3.93"/>
	<rect x="116.216" y="58.425" fill="#C7C8CA" width="3.931" height="3.932"/>
	<rect x="116.216" y="53.246" fill="#C7C8CA" width="3.931" height="3.93"/>
	<rect x="116.216" y="48.064" fill="#C7C8CA" width="3.931" height="3.931"/>
	<rect x="116.216" y="42.883" fill="#C7C8CA" width="3.931" height="3.93"/>
	<rect x="116.216" y="37.702" fill="#C7C8CA" width="3.931" height="3.933"/>
	<rect x="116.216" y="32.523" fill="#C7C8CA" width="3.931" height="3.929"/>
	<rect x="116.216" y="27.339" fill="#C7C8CA" width="3.931" height="3.933"/>
	<rect x="116.216" y="22.16" fill="#C7C8CA" width="3.931" height="3.93"/>
	<rect x="116.216" y="16.979" fill="#C7C8CA" width="3.931" height="3.932"/>
	<rect x="116.216" y="11.798" fill="#C7C8CA" width="3.931" height="3.93"/>
	<rect x="116.216" y="6.618" fill="#C7C8CA" width="3.931" height="3.93"/>
	<rect x="116.216" y="1.436" fill="#C7C8CA" width="3.931" height="3.932"/>
	<rect x="121.666" y="73.968" fill="#C7C8CA" width="3.931" height="3.929"/>
	<rect x="121.666" y="68.787" fill="#C7C8CA" width="3.931" height="3.931"/>
	<rect x="121.666" y="63.606" fill="#C7C8CA" width="3.931" height="3.93"/>
	<rect x="121.666" y="58.425" fill="#C7C8CA" width="3.931" height="3.932"/>
	<rect x="121.666" y="53.246" fill="#C7C8CA" width="3.931" height="3.93"/>
	<rect x="121.666" y="48.064" fill="#C7C8CA" width="3.931" height="3.931"/>
	<rect x="121.666" y="42.883" fill="#C7C8CA" width="3.931" height="3.93"/>
	<rect x="121.666" y="37.702" fill="#C7C8CA" width="3.931" height="3.933"/>
	<rect x="121.666" y="32.523" fill="#C7C8CA" width="3.931" height="3.929"/>
	<rect x="121.666" y="27.339" fill="#C7C8CA" width="3.931" height="3.933"/>
	<rect x="121.666" y="22.16" fill="#C7C8CA" width="3.931" height="3.93"/>
	<rect x="121.666" y="16.979" fill="#C7C8CA" width="3.931" height="3.932"/>
	<rect x="121.666" y="11.798" fill="#C7C8CA" width="3.931" height="3.93"/>
	<rect x="121.666" y="6.618" fill="#C7C8CA" width="3.931" height="3.93"/>
	<rect x="121.666" y="1.436" fill="#C7C8CA" width="3.931" height="3.932"/>
	<rect x="127.115" y="73.968" fill="#C7C8CA" width="3.931" height="3.929"/>
	<rect x="127.115" y="68.787" fill="#C7C8CA" width="3.931" height="3.931"/>
	<rect x="127.115" y="63.606" fill="#C7C8CA" width="3.931" height="3.93"/>
	<rect x="127.115" y="58.425" fill="#C7C8CA" width="3.931" height="3.932"/>
	<rect x="127.115" y="53.246" fill="#C7C8CA" width="3.931" height="3.93"/>
	<rect x="127.115" y="48.064" fill="#C7C8CA" width="3.931" height="3.931"/>
	<rect x="127.115" y="42.883" fill="#C7C8CA" width="3.931" height="3.93"/>
	<rect x="127.115" y="37.702" fill="#C7C8CA" width="3.931" height="3.933"/>
	<rect x="127.115" y="32.523" fill="#C7C8CA" width="3.931" height="3.929"/>
	<rect x="127.115" y="27.339" fill="#C7C8CA" width="3.931" height="3.933"/>
	<rect x="127.115" y="22.16" fill="#C7C8CA" width="3.931" height="3.93"/>
	<rect x="127.115" y="16.979" fill="#C7C8CA" width="3.931" height="3.932"/>
	<rect x="127.115" y="11.798" fill="#C7C8CA" width="3.931" height="3.93"/>
	<rect x="127.115" y="6.618" fill="#C7C8CA" width="3.931" height="3.93"/>
	<rect x="127.115" y="1.436" fill="#C7C8CA" width="3.931" height="3.932"/>
	<rect x="132.563" y="73.968" fill="#C7C8CA" width="3.93" height="3.929"/>
	<rect x="132.563" y="68.787" fill="#C7C8CA" width="3.93" height="3.931"/>
	<rect x="132.563" y="63.606" fill="#C7C8CA" width="3.93" height="3.93"/>
	<rect x="132.563" y="58.425" fill="#C7C8CA" width="3.93" height="3.932"/>
	<rect x="132.563" y="53.246" fill="#C7C8CA" width="3.93" height="3.93"/>
	<rect x="132.563" y="48.064" fill="#C7C8CA" width="3.93" height="3.931"/>
	<rect x="132.563" y="42.883" fill="#C7C8CA" width="3.93" height="3.93"/>
	<rect x="132.563" y="37.702" fill="#C7C8CA" width="3.93" height="3.933"/>
	<rect x="132.563" y="32.523" fill="#C7C8CA" width="3.93" height="3.929"/>
	<rect x="132.563" y="27.339" fill="#C7C8CA" width="3.93" height="3.933"/>
	<rect x="132.563" y="22.16" fill="#C7C8CA" width="3.93" height="3.93"/>
	<rect x="132.563" y="16.979" fill="#C7C8CA" width="3.93" height="3.932"/>
	<rect x="132.563" y="11.798" fill="#C7C8CA" width="3.93" height="3.93"/>
	<rect x="132.563" y="6.618" fill="#C7C8CA" width="3.93" height="3.93"/>
	<rect x="132.563" y="1.436" fill="#C7C8CA" width="3.93" height="3.932"/>
	<rect x="192.446" y="68.787" fill="#C7C8CA" width="3.932" height="3.931"/>
	<rect x="192.446" y="63.606" fill="#C7C8CA" width="3.932" height="3.93"/>
	<rect x="192.446" y="58.425" fill="#C7C8CA" width="3.932" height="3.932"/>
	<rect x="192.446" y="53.246" fill="#C7C8CA" width="3.932" height="3.93"/>
	<rect x="192.446" y="48.064" fill="#C7C8CA" width="3.932" height="3.931"/>
	<rect x="192.446" y="42.883" fill="#C7C8CA" width="3.932" height="3.93"/>
	<rect x="192.446" y="37.702" fill="#C7C8CA" width="3.932" height="3.933"/>
	<rect x="192.446" y="32.523" fill="#C7C8CA" width="3.932" height="3.929"/>
	<rect x="192.446" y="27.339" fill="#C7C8CA" width="3.932" height="3.933"/>
	<rect x="192.446" y="22.16" fill="#C7C8CA" width="3.932" height="3.93"/>
	<rect x="192.446" y="16.979" fill="#C7C8CA" width="3.932" height="3.932"/>
	<rect x="192.446" y="11.798" fill="#C7C8CA" width="3.932" height="3.93"/>
	<rect x="192.446" y="6.618" width="3.932" height="3.93"/>
	<rect x="192.446" y="1.436" width="3.932" height="3.932"/>
	<rect x="197.895" y="68.787" fill="#C7C8CA" width="3.932" height="3.931"/>
	<rect x="197.895" y="63.606" fill="#C7C8CA" width="3.932" height="3.93"/>
	<rect x="197.895" y="58.425" fill="#C7C8CA" width="3.932" height="3.932"/>
	<rect x="197.895" y="53.246" fill="#C7C8CA" width="3.932" height="3.93"/>
	<rect x="197.895" y="48.064" fill="#C7C8CA" width="3.932" height="3.931"/>
	<rect x="197.895" y="42.883" fill="#C7C8CA" width="3.932" height="3.93"/>
	<rect x="197.895" y="37.702" fill="#C7C8CA" width="3.932" height="3.933"/>
	<rect x="197.895" y="32.523" fill="#C7C8CA" width="3.932" height="3.929"/>
	<rect x="197.895" y="27.339" fill="#C7C8CA" width="3.932" height="3.933"/>
	<rect x="197.895" y="22.16" fill="#C7C8CA" width="3.932" height="3.93"/>
	<rect x="197.895" y="16.979" fill="#C7C8CA" width="3.932" height="3.932"/>
	<rect x="197.895" y="11.798" fill="#C7C8CA" width="3.932" height="3.93"/>
	<rect x="197.895" y="6.618" width="3.932" height="3.93"/>
	<rect x="197.895" y="1.436" width="3.932" height="3.932"/>
	<rect x="203.344" y="68.787" fill="#C7C8CA" width="3.93" height="3.931"/>
	<rect x="203.344" y="63.606" fill="#C7C8CA" width="3.93" height="3.93"/>
	<rect x="203.344" y="58.425" fill="#C7C8CA" width="3.93" height="3.932"/>
	<rect x="203.344" y="53.246" fill="#C7C8CA" width="3.93" height="3.93"/>
	<rect x="203.344" y="48.064" fill="#C7C8CA" width="3.93" height="3.931"/>
	<rect x="203.344" y="42.883" fill="#C7C8CA" width="3.93" height="3.93"/>
	<rect x="203.344" y="37.702" fill="#C7C8CA" width="3.93" height="3.933"/>
	<rect x="203.344" y="32.523" fill="#C7C8CA" width="3.93" height="3.929"/>
	<rect x="203.344" y="27.339" fill="#C7C8CA" width="3.93" height="3.933"/>
	<rect x="203.344" y="22.16" fill="#C7C8CA" width="3.93" height="3.93"/>
	<rect x="203.344" y="16.979" fill="#C7C8CA" width="3.93" height="3.932"/>
	<rect x="203.344" y="11.798" fill="#C7C8CA" width="3.93" height="3.93"/>
	<rect x="203.344" y="6.618" width="3.93" height="3.93"/>
	<rect x="203.344" y="1.436" width="3.93" height="3.932"/>
	<rect x="208.793" y="68.787" fill="#C7C8CA" width="3.931" height="3.931"/>
	<rect x="208.793" y="63.606" fill="#C7C8CA" width="3.931" height="3.93"/>
	<rect x="208.793" y="58.425" fill="#C7C8CA" width="3.931" height="3.932"/>
	<rect x="208.793" y="53.246" fill="#C7C8CA" width="3.931" height="3.93"/>
	<rect x="208.793" y="48.064" fill="#C7C8CA" width="3.931" height="3.931"/>
	<rect x="208.793" y="42.883" fill="#C7C8CA" width="3.931" height="3.93"/>
	<rect x="208.793" y="37.702" fill="#C7C8CA" width="3.931" height="3.933"/>
	<rect x="208.793" y="32.523" fill="#C7C8CA" width="3.931" height="3.929"/>
	<rect x="208.793" y="27.339" fill="#C7C8CA" width="3.931" height="3.933"/>
	<rect x="208.793" y="22.16" fill="#C7C8CA" width="3.931" height="3.93"/>
	<rect x="208.793" y="16.979" fill="#C7C8CA" width="3.931" height="3.932"/>
	<rect x="208.793" y="11.798" fill="#C7C8CA" width="3.931" height="3.93"/>
	<rect x="208.793" y="6.618" width="3.931" height="3.93"/>
	<rect x="208.793" y="1.436" width="3.931" height="3.932"/>
	<rect x="214.242" y="68.787" fill="#C7C8CA" width="3.931" height="3.931"/>
	<rect x="214.242" y="63.606" fill="#C7C8CA" width="3.931" height="3.93"/>
	<rect x="214.242" y="58.425" fill="#C7C8CA" width="3.931" height="3.932"/>
	<rect x="214.242" y="53.246" fill="#C7C8CA" width="3.931" height="3.93"/>
	<rect x="214.242" y="48.064" fill="#C7C8CA" width="3.931" height="3.931"/>
	<rect x="214.242" y="42.883" fill="#C7C8CA" width="3.931" height="3.93"/>
	<rect x="214.242" y="37.702" fill="#C7C8CA" width="3.931" height="3.933"/>
	<rect x="214.242" y="32.523" fill="#C7C8CA" width="3.931" height="3.929"/>
	<rect x="214.242" y="27.339" fill="#C7C8CA" width="3.931" height="3.933"/>
	<rect x="214.242" y="22.16" fill="#C7C8CA" width="3.931" height="3.93"/>
	<rect x="214.242" y="16.979" fill="#C7C8CA" width="3.931" height="3.932"/>
	<rect x="214.242" y="11.798" fill="#C7C8CA" width="3.931" height="3.93"/>
	<rect x="214.242" y="6.618" width="3.931" height="3.93"/>
	<rect x="214.242" y="1.436" width="3.931" height="3.932"/>
	<rect x="137.94" y="73.968" fill="#C7C8CA" width="3.93" height="3.929"/>
	<rect x="137.94" y="68.787" fill="#C7C8CA" width="3.93" height="3.931"/>
	<rect x="137.94" y="63.606" fill="#C7C8CA" width="3.93" height="3.93"/>
	<rect x="137.94" y="58.425" fill="#C7C8CA" width="3.93" height="3.932"/>
	<rect x="137.94" y="53.246" fill="#C7C8CA" width="3.93" height="3.93"/>
	<rect x="137.94" y="48.064" fill="#C7C8CA" width="3.93" height="3.931"/>
	<rect x="137.94" y="42.883" fill="#C7C8CA" width="3.93" height="3.93"/>
	<rect x="137.94" y="37.702" fill="#C7C8CA" width="3.93" height="3.933"/>
	<rect x="137.94" y="32.523" fill="#C7C8CA" width="3.93" height="3.929"/>
	<rect x="137.94" y="27.339" fill="#C7C8CA" width="3.93" height="3.933"/>
	<rect x="137.94" y="22.16" fill="#C7C8CA" width="3.93" height="3.93"/>
	<rect x="137.94" y="16.979" fill="#C7C8CA" width="3.93" height="3.932"/>
	<rect x="137.94" y="11.798" fill="#C7C8CA" width="3.93" height="3.93"/>
	<rect x="137.94" y="6.618" fill="#C7C8CA" width="3.93" height="3.93"/>
	<rect x="137.94" y="1.436" fill="#C7C8CA" width="3.93" height="3.932"/>
	<rect x="143.387" y="73.968" fill="#C7C8CA" width="3.932" height="3.929"/>
	<rect x="143.387" y="68.787" fill="#C7C8CA" width="3.932" height="3.931"/>
	<rect x="143.387" y="63.606" fill="#C7C8CA" width="3.932" height="3.93"/>
	<rect x="143.387" y="58.425" fill="#C7C8CA" width="3.932" height="3.932"/>
	<rect x="143.387" y="53.246" fill="#C7C8CA" width="3.932" height="3.93"/>
	<rect x="143.387" y="48.064" fill="#C7C8CA" width="3.932" height="3.931"/>
	<rect x="143.387" y="42.883" fill="#C7C8CA" width="3.932" height="3.93"/>
	<rect x="143.387" y="37.702" fill="#C7C8CA" width="3.932" height="3.933"/>
	<rect x="143.387" y="32.523" fill="#C7C8CA" width="3.932" height="3.929"/>
	<rect x="143.387" y="27.339" fill="#C7C8CA" width="3.932" height="3.933"/>
	<rect x="143.387" y="22.16" fill="#C7C8CA" width="3.932" height="3.93"/>
	<rect x="143.387" y="16.979" fill="#C7C8CA" width="3.932" height="3.932"/>
	<rect x="143.387" y="11.798" fill="#C7C8CA" width="3.932" height="3.93"/>
	<rect x="143.387" y="6.618" fill="#C7C8CA" width="3.932" height="3.93"/>
	<rect x="143.387" y="1.436" width="3.932" height="3.932"/>
	<rect x="148.836" y="73.968" fill="#C7C8CA" width="3.93" height="3.929"/>
	<rect x="148.836" y="68.787" fill="#C7C8CA" width="3.93" height="3.931"/>
	<rect x="148.836" y="63.606" fill="#C7C8CA" width="3.93" height="3.93"/>
	<rect x="148.836" y="58.425" fill="#C7C8CA" width="3.93" height="3.932"/>
	<rect x="148.836" y="53.246" fill="#C7C8CA" width="3.93" height="3.93"/>
	<rect x="148.836" y="48.064" fill="#C7C8CA" width="3.93" height="3.931"/>
	<rect x="148.836" y="42.883" fill="#C7C8CA" width="3.93" height="3.93"/>
	<rect x="148.836" y="37.702" fill="#C7C8CA" width="3.93" height="3.933"/>
	<rect x="148.836" y="32.523" fill="#C7C8CA" width="3.93" height="3.929"/>
	<rect x="148.836" y="27.339" fill="#C7C8CA" width="3.93" height="3.933"/>
	<rect x="148.836" y="22.16" fill="#C7C8CA" width="3.93" height="3.93"/>
	<rect x="148.836" y="16.979" fill="#C7C8CA" width="3.93" height="3.932"/>
	<rect x="148.836" y="11.798" fill="#C7C8CA" width="3.93" height="3.93"/>
	<rect x="148.836" y="6.618" width="3.93" height="3.93"/>
	<rect x="148.836" y="1.436" width="3.93" height="3.932"/>
	<rect x="154.286" y="73.968" fill="#C7C8CA" width="3.93" height="3.929"/>
	<rect x="154.286" y="68.787" fill="#C7C8CA" width="3.93" height="3.931"/>
	<rect x="154.286" y="63.606" fill="#C7C8CA" width="3.93" height="3.93"/>
	<rect x="154.286" y="58.425" fill="#C7C8CA" width="3.93" height="3.932"/>
	<rect x="154.286" y="53.246" fill="#C7C8CA" width="3.93" height="3.93"/>
	<rect x="154.286" y="48.064" fill="#C7C8CA" width="3.93" height="3.931"/>
	<rect x="154.286" y="42.883" fill="#C7C8CA" width="3.93" height="3.93"/>
	<rect x="154.286" y="37.702" fill="#C7C8CA" width="3.93" height="3.933"/>
	<rect x="154.286" y="32.523" fill="#C7C8CA" width="3.93" height="3.929"/>
	<rect x="154.286" y="27.339" fill="#C7C8CA" width="3.93" height="3.933"/>
	<rect x="154.286" y="22.16" fill="#C7C8CA" width="3.93" height="3.93"/>
	<rect x="154.286" y="16.979" fill="#C7C8CA" width="3.93" height="3.932"/>
	<rect x="154.286" y="11.798" fill="#C7C8CA" width="3.93" height="3.93"/>
	<rect x="154.286" y="6.618" width="3.93" height="3.93"/>
	<rect x="154.286" y="1.436" width="3.93" height="3.932"/>
	<rect x="159.735" y="73.968" fill="#C7C8CA" width="3.93" height="3.929"/>
	<rect x="159.735" y="68.787" fill="#C7C8CA" width="3.93" height="3.931"/>
	<rect x="159.735" y="63.606" fill="#C7C8CA" width="3.93" height="3.93"/>
	<rect x="159.735" y="58.425" fill="#C7C8CA" width="3.93" height="3.932"/>
	<rect x="159.735" y="53.246" fill="#C7C8CA" width="3.93" height="3.93"/>
	<rect x="159.735" y="48.064" fill="#C7C8CA" width="3.93" height="3.931"/>
	<rect x="159.735" y="42.883" fill="#C7C8CA" width="3.93" height="3.93"/>
	<rect x="159.735" y="37.702" fill="#C7C8CA" width="3.93" height="3.933"/>
	<rect x="159.735" y="32.523" fill="#C7C8CA" width="3.93" height="3.929"/>
	<rect x="159.735" y="27.339" fill="#C7C8CA" width="3.93" height="3.933"/>
	<rect x="159.735" y="22.16" fill="#C7C8CA" width="3.93" height="3.93"/>
	<rect x="159.735" y="16.979" fill="#C7C8CA" width="3.93" height="3.932"/>
	<rect x="159.735" y="11.798" fill="#C7C8CA" width="3.93" height="3.93"/>
	<rect x="159.735" y="6.618" width="3.93" height="3.93"/>
	<rect x="159.735" y="1.436" width="3.93" height="3.932"/>
	<rect x="165.274" y="73.968" fill="#C7C8CA" width="3.93" height="3.929"/>
	<rect x="165.274" y="68.787" fill="#C7C8CA" width="3.93" height="3.931"/>
	<rect x="165.274" y="63.606" fill="#C7C8CA" width="3.93" height="3.93"/>
	<rect x="165.274" y="58.425" fill="#C7C8CA" width="3.93" height="3.932"/>
	<rect x="165.274" y="53.246" fill="#C7C8CA" width="3.93" height="3.93"/>
	<rect x="165.274" y="48.064" fill="#C7C8CA" width="3.93" height="3.931"/>
	<rect x="165.274" y="42.883" fill="#C7C8CA" width="3.93" height="3.93"/>
	<rect x="165.274" y="37.702" fill="#C7C8CA" width="3.93" height="3.933"/>
	<rect x="165.274" y="32.523" fill="#C7C8CA" width="3.93" height="3.929"/>
	<rect x="165.274" y="27.339" fill="#C7C8CA" width="3.93" height="3.933"/>
	<rect x="165.274" y="22.16" fill="#C7C8CA" width="3.93" height="3.93"/>
	<rect x="165.274" y="16.979" fill="#C7C8CA" width="3.93" height="3.932"/>
	<rect x="165.274" y="11.798" fill="#C7C8CA" width="3.93" height="3.93"/>
	<rect x="165.274" y="6.618" width="3.93" height="3.93"/>
	<rect x="165.274" y="1.436" width="3.93" height="3.932"/>
	<rect x="170.721" y="73.968" fill="#C7C8CA" width="3.931" height="3.929"/>
	<rect x="170.721" y="68.787" fill="#C7C8CA" width="3.931" height="3.931"/>
	<rect x="170.721" y="63.606" fill="#C7C8CA" width="3.931" height="3.93"/>
	<rect x="170.721" y="58.425" fill="#C7C8CA" width="3.931" height="3.932"/>
	<rect x="170.721" y="53.246" fill="#C7C8CA" width="3.931" height="3.93"/>
	<rect x="170.721" y="48.064" fill="#C7C8CA" width="3.931" height="3.931"/>
	<rect x="170.721" y="42.883" fill="#C7C8CA" width="3.931" height="3.93"/>
	<rect x="170.721" y="37.702" fill="#C7C8CA" width="3.931" height="3.933"/>
	<rect x="170.721" y="32.523" fill="#C7C8CA" width="3.931" height="3.929"/>
	<rect x="170.721" y="27.339" fill="#C7C8CA" width="3.931" height="3.933"/>
	<rect x="170.721" y="22.16" fill="#C7C8CA" width="3.931" height="3.93"/>
	<rect x="170.721" y="16.979" fill="#C7C8CA" width="3.931" height="3.932"/>
	<rect x="170.721" y="11.798" fill="#C7C8CA" width="3.931" height="3.93"/>
	<rect x="170.721" y="6.618" width="3.931" height="3.93"/>
	<rect x="170.721" y="1.436" width="3.931" height="3.932"/>
	<rect x="176.17" y="73.968" fill="#C7C8CA" width="3.93" height="3.929"/>
	<rect x="176.17" y="68.787" fill="#C7C8CA" width="3.93" height="3.931"/>
	<rect x="176.17" y="63.606" fill="#C7C8CA" width="3.93" height="3.93"/>
	<rect x="176.17" y="58.425" fill="#C7C8CA" width="3.93" height="3.932"/>
	<rect x="176.17" y="53.246" fill="#C7C8CA" width="3.93" height="3.93"/>
	<rect x="176.17" y="48.064" fill="#C7C8CA" width="3.93" height="3.931"/>
	<rect x="176.17" y="42.883" fill="#C7C8CA" width="3.93" height="3.93"/>
	<rect x="176.17" y="37.702" fill="#C7C8CA" width="3.93" height="3.933"/>
	<rect x="176.17" y="32.523" fill="#C7C8CA" width="3.93" height="3.929"/>
	<rect x="176.17" y="27.339" fill="#C7C8CA" width="3.93" height="3.933"/>
	<rect x="176.17" y="22.16" fill="#C7C8CA" width="3.93" height="3.93"/>
	<rect x="176.17" y="16.979" fill="#C7C8CA" width="3.93" height="3.932"/>
	<rect x="176.17" y="11.798" fill="#C7C8CA" width="3.93" height="3.93"/>
	<rect x="176.17" y="6.618" width="3.93" height="3.93"/>
	<rect x="176.17" y="1.436" width="3.93" height="3.932"/>
	<rect x="181.62" y="73.968" fill="#C7C8CA" width="3.931" height="3.929"/>
	<rect x="181.62" y="68.787" fill="#C7C8CA" width="3.931" height="3.931"/>
	<rect x="181.62" y="63.606" fill="#C7C8CA" width="3.931" height="3.93"/>
	<rect x="181.62" y="58.425" fill="#C7C8CA" width="3.931" height="3.932"/>
	<rect x="181.62" y="53.246" fill="#C7C8CA" width="3.931" height="3.93"/>
	<rect x="181.62" y="48.064" fill="#C7C8CA" width="3.931" height="3.931"/>
	<rect x="181.62" y="42.883" fill="#C7C8CA" width="3.931" height="3.93"/>
	<rect x="181.62" y="37.702" fill="#C7C8CA" width="3.931" height="3.933"/>
	<rect x="181.62" y="32.523" fill="#C7C8CA" width="3.931" height="3.929"/>
	<rect x="181.62" y="27.339" fill="#C7C8CA" width="3.931" height="3.933"/>
	<rect x="181.62" y="22.16" fill="#C7C8CA" width="3.931" height="3.93"/>
	<rect x="181.62" y="16.979" fill="#C7C8CA" width="3.931" height="3.932"/>
	<rect x="181.62" y="11.798" fill="#C7C8CA" width="3.931" height="3.93"/>
	<rect x="181.62" y="6.618" width="3.931" height="3.93"/>
	<rect x="181.62" y="1.436" width="3.931" height="3.932"/>
	<rect x="187.068" y="68.787" fill="#C7C8CA" width="3.931" height="3.931"/>
	<rect x="187.068" y="63.606" fill="#C7C8CA" width="3.931" height="3.93"/>
	<rect x="187.068" y="58.425" fill="#C7C8CA" width="3.931" height="3.932"/>
	<rect x="187.068" y="53.246" fill="#C7C8CA" width="3.931" height="3.93"/>
	<rect x="187.068" y="48.064" fill="#C7C8CA" width="3.931" height="3.931"/>
	<rect x="187.068" y="42.883" fill="#C7C8CA" width="3.931" height="3.93"/>
	<rect x="187.068" y="37.702" fill="#C7C8CA" width="3.931" height="3.933"/>
	<rect x="187.068" y="32.523" fill="#C7C8CA" width="3.931" height="3.929"/>
	<rect x="187.068" y="27.339" fill="#C7C8CA" width="3.931" height="3.933"/>
	<rect x="187.068" y="22.16" fill="#C7C8CA" width="3.931" height="3.93"/>
	<rect x="187.068" y="16.979" fill="#C7C8CA" width="3.931" height="3.932"/>
	<rect x="187.068" y="11.798" fill="#C7C8CA" width="3.931" height="3.93"/>
	<rect x="187.068" y="6.618" width="3.931" height="3.93"/>
	<rect x="187.068" y="1.436" width="3.931" height="3.932"/>
</g>
</svg>
